<svg xmlns="http://www.w3.org/2000/svg" xmlns:xlink="http://www.w3.org/1999/xlink" width="1080" zoomAndPan="magnify" viewBox="0 0 810 1012.49997" height="1350" preserveAspectRatio="xMidYMid meet" version="1.0"><defs><g/><clipPath id="36e3f13cb6"><rect x="0" width="689" y="0" height="241"/></clipPath></defs><g transform="matrix(1, 0, 0, 1, 67, 352)"><g clip-path="url(#36e3f13cb6)"><g fill="#ffffff" fill-opacity="1"><g transform="translate(0.780844, 192.760933)"><g><path d="M 63.3125 2.359375 C 56.695312 2.359375 50.117188 1.179688 43.578125 -1.171875 C 37.046875 -3.535156 31.023438 -7.082031 25.515625 -11.8125 C 20.003906 -16.539062 15.59375 -22.445312 12.28125 -29.53125 C 8.976562 -36.613281 7.328125 -44.957031 7.328125 -54.5625 C 7.328125 -64.644531 9.097656 -73.703125 12.640625 -81.734375 C 16.179688 -89.765625 20.941406 -96.613281 26.921875 -102.28125 C 32.910156 -107.957031 39.566406 -112.289062 46.890625 -115.28125 C 54.210938 -118.269531 61.734375 -119.765625 69.453125 -119.765625 C 80.160156 -119.765625 89.132812 -117.640625 96.375 -113.390625 C 103.625 -109.140625 109.097656 -103.785156 112.796875 -97.328125 C 116.503906 -90.867188 118.359375 -84.175781 118.359375 -77.25 L 28.828125 -77.25 C 28.660156 -75.988281 28.535156 -74.726562 28.453125 -73.46875 C 28.378906 -72.207031 28.34375 -70.945312 28.34375 -69.6875 C 28.34375 -59.445312 30.347656 -50.3125 34.359375 -42.28125 C 38.378906 -34.25 44.050781 -27.988281 51.375 -23.5 C 58.695312 -19.007812 67.320312 -16.765625 77.25 -16.765625 C 86.070312 -16.765625 93.867188 -18.5 100.640625 -21.96875 C 107.410156 -25.4375 113.238281 -29.925781 118.125 -35.4375 L 120.25 -33.078125 C 116.625 -27.554688 112.132812 -22.078125 106.78125 -16.640625 C 101.425781 -11.210938 95.125 -6.6875 87.875 -3.0625 C 80.632812 0.550781 72.445312 2.359375 63.3125 2.359375 Z M 29.0625 -80.5625 L 94.5 -80.5625 C 93.550781 -87.007812 91.539062 -92.867188 88.46875 -98.140625 C 85.394531 -103.421875 81.613281 -107.632812 77.125 -110.78125 C 72.632812 -113.9375 67.632812 -115.515625 62.125 -115.515625 C 55.507812 -115.671875 49.914062 -114.09375 45.34375 -110.78125 C 40.78125 -107.476562 37.160156 -103.148438 34.484375 -97.796875 C 31.804688 -92.441406 30 -86.695312 29.0625 -80.5625 Z M 29.0625 -80.5625 "/></g></g></g><g fill="#ffffff" fill-opacity="1"><g transform="translate(140.15299, 192.760933)"><g><path d="M 68.515625 2.125 C 60.003906 2.125 52.164062 0.429688 45 -2.953125 C 37.832031 -6.335938 32.046875 -10.472656 27.640625 -15.359375 L 17.953125 0 L 15.359375 0 L 15.359375 -155.203125 C 15.359375 -162.128906 14.53125 -166.695312 12.875 -168.90625 C 11.21875 -171.113281 8.894531 -172.847656 5.90625 -174.109375 L 5.90625 -177.40625 L 37.09375 -191.109375 L 39.453125 -189.21875 L 39.453125 -105.828125 C 45.429688 -109.609375 51.769531 -112.875 58.46875 -115.625 C 65.164062 -118.382812 71.898438 -119.765625 78.671875 -119.765625 C 89.847656 -119.765625 99.453125 -117.046875 107.484375 -111.609375 C 115.515625 -106.179688 121.695312 -99.132812 126.03125 -90.46875 C 130.363281 -81.8125 132.53125 -72.601562 132.53125 -62.84375 C 132.53125 -50.875 129.929688 -39.96875 124.734375 -30.125 C 119.535156 -20.28125 112.128906 -12.441406 102.515625 -6.609375 C 92.910156 -0.785156 81.578125 2.125 68.515625 2.125 Z M 39.453125 -41.578125 C 39.453125 -37.003906 40.59375 -32.4375 42.875 -27.875 C 45.15625 -23.3125 48.144531 -19.140625 51.84375 -15.359375 C 55.550781 -11.578125 59.6875 -8.539062 64.25 -6.25 C 68.820312 -3.96875 73.3125 -2.828125 77.71875 -2.828125 C 86.0625 -2.828125 92.515625 -4.832031 97.078125 -8.84375 C 101.648438 -12.863281 104.84375 -18.101562 106.65625 -24.5625 C 108.46875 -31.019531 109.375 -37.796875 109.375 -44.890625 C 109.375 -49.140625 108.941406 -54.097656 108.078125 -59.765625 C 107.210938 -65.429688 105.753906 -71.21875 103.703125 -77.125 C 101.660156 -83.03125 98.90625 -88.503906 95.4375 -93.546875 C 91.96875 -98.585938 87.675781 -102.644531 82.5625 -105.71875 C 77.445312 -108.789062 71.34375 -110.328125 64.25 -110.328125 C 59.84375 -110.328125 55.59375 -109.578125 51.5 -108.078125 C 47.40625 -106.578125 43.390625 -104.566406 39.453125 -102.046875 Z M 39.453125 -41.578125 "/></g></g></g><g fill="#ffffff" fill-opacity="1"><g transform="translate(290.863729, 192.760933)"><g><path d="M 96.859375 0 C 90.554688 0 87.40625 -3.148438 87.40625 -9.453125 L 87.40625 -48.421875 C 85.195312 -39.285156 81.890625 -30.859375 77.484375 -23.140625 C 73.078125 -15.429688 67.644531 -9.253906 61.1875 -4.609375 C 54.726562 0.0351562 47.40625 2.359375 39.21875 2.359375 C 30.550781 2.359375 23.03125 -0.316406 16.65625 -5.671875 C 10.28125 -11.023438 7.09375 -18.660156 7.09375 -28.578125 C 7.09375 -36.773438 9.570312 -43.429688 14.53125 -48.546875 C 19.488281 -53.660156 26.0625 -57.953125 34.25 -61.421875 C 42.4375 -64.890625 51.414062 -67.960938 61.1875 -70.640625 L 87.40625 -78.1875 C 87.25 -89.84375 84.296875 -98.148438 78.546875 -103.109375 C 72.796875 -108.078125 65.515625 -110.5625 56.703125 -110.5625 C 50.085938 -110.5625 43.550781 -109.023438 37.09375 -105.953125 C 30.632812 -102.878906 24.410156 -97.722656 18.421875 -90.484375 L 16.0625 -92.609375 C 22.675781 -100.796875 30.472656 -107.367188 39.453125 -112.328125 C 48.429688 -117.285156 58.273438 -119.765625 68.984375 -119.765625 C 83.316406 -119.765625 93.90625 -116.023438 100.75 -108.546875 C 107.601562 -101.066406 111.03125 -90.082031 111.03125 -75.59375 L 111.03125 -30 C 111.03125 -21.5 111.617188 -15.238281 112.796875 -11.21875 C 113.984375 -7.207031 116.546875 -4.570312 120.484375 -3.3125 L 120.484375 0 Z M 29.0625 -36.859375 C 29.0625 -29.140625 31.382812 -23.546875 36.03125 -20.078125 C 40.675781 -16.609375 45.675781 -14.875 51.03125 -14.875 C 56.851562 -14.875 62.007812 -16.644531 66.5 -20.1875 C 70.988281 -23.738281 74.769531 -28.304688 77.84375 -33.890625 C 80.914062 -39.484375 83.273438 -45.351562 84.921875 -51.5 C 86.578125 -57.644531 87.40625 -63.394531 87.40625 -68.75 L 87.40625 -74.890625 L 62.125 -67.5625 C 59.289062 -66.769531 56.023438 -65.625 52.328125 -64.125 C 48.628906 -62.632812 45.003906 -60.707031 41.453125 -58.34375 C 37.910156 -55.988281 34.957031 -53.035156 32.59375 -49.484375 C 30.238281 -45.941406 29.0625 -41.734375 29.0625 -36.859375 Z M 29.0625 -36.859375 "/></g></g></g><g fill="#ffffff" fill-opacity="1"><g transform="translate(429.290957, 192.760933)"><g><path d="M 8.5 45.59375 C 3.625 45.75 -0.460938 45.117188 -3.765625 43.703125 C -7.078125 42.285156 -8.734375 40.394531 -8.734375 38.03125 C -8.734375 36.457031 -8.0625 34.53125 -6.71875 32.25 C -5.382812 29.96875 -3.378906 27.878906 -0.703125 25.984375 C 1.972656 24.097656 5.117188 23.15625 8.734375 23.15625 C 12.203125 23.15625 16.890625 23.585938 22.796875 24.453125 C 28.703125 25.316406 34.726562 26.300781 40.875 27.40625 C 43.707031 24.25 46.539062 20.425781 49.375 15.9375 C 52.207031 11.457031 54.882812 6.539062 57.40625 1.1875 L 17.71875 -90.484375 C 14.40625 -98.359375 11.175781 -104.066406 8.03125 -107.609375 C 4.882812 -111.148438 1.972656 -113.550781 -0.703125 -114.8125 L -0.703125 -118.125 L 41.109375 -118.125 L 41.109375 -114.8125 C 37.171875 -113.550781 35.75 -111.1875 36.84375 -107.71875 C 37.945312 -104.257812 40.234375 -98.59375 43.703125 -90.71875 L 70.640625 -29.296875 L 97.09375 -90.484375 C 100.394531 -98.359375 101.8125 -104.144531 101.34375 -107.84375 C 100.875 -111.539062 98.59375 -113.863281 94.5 -114.8125 L 94.5 -118.125 L 121.421875 -118.125 L 121.421875 -114.8125 C 117.960938 -113.550781 114.535156 -111.1875 111.140625 -107.71875 C 107.753906 -104.257812 104.332031 -98.59375 100.875 -90.71875 L 64.734375 -7.09375 C 58.742188 6.613281 52.832031 17.285156 47 24.921875 C 41.175781 32.554688 35.113281 37.867188 28.8125 40.859375 C 22.519531 43.859375 15.75 45.4375 8.5 45.59375 Z M 8.5 45.59375 "/></g></g></g><g fill="#ffffff" fill-opacity="1"><g transform="translate(550.001216, 192.760933)"><g><path d="M 96.859375 0 C 90.554688 0 87.40625 -3.148438 87.40625 -9.453125 L 87.40625 -48.421875 C 85.195312 -39.285156 81.890625 -30.859375 77.484375 -23.140625 C 73.078125 -15.429688 67.644531 -9.253906 61.1875 -4.609375 C 54.726562 0.0351562 47.40625 2.359375 39.21875 2.359375 C 30.550781 2.359375 23.03125 -0.316406 16.65625 -5.671875 C 10.28125 -11.023438 7.09375 -18.660156 7.09375 -28.578125 C 7.09375 -36.773438 9.570312 -43.429688 14.53125 -48.546875 C 19.488281 -53.660156 26.0625 -57.953125 34.25 -61.421875 C 42.4375 -64.890625 51.414062 -67.960938 61.1875 -70.640625 L 87.40625 -78.1875 C 87.25 -89.84375 84.296875 -98.148438 78.546875 -103.109375 C 72.796875 -108.078125 65.515625 -110.5625 56.703125 -110.5625 C 50.085938 -110.5625 43.550781 -109.023438 37.09375 -105.953125 C 30.632812 -102.878906 24.410156 -97.722656 18.421875 -90.484375 L 16.0625 -92.609375 C 22.675781 -100.796875 30.472656 -107.367188 39.453125 -112.328125 C 48.429688 -117.285156 58.273438 -119.765625 68.984375 -119.765625 C 83.316406 -119.765625 93.90625 -116.023438 100.75 -108.546875 C 107.601562 -101.066406 111.03125 -90.082031 111.03125 -75.59375 L 111.03125 -30 C 111.03125 -21.5 111.617188 -15.238281 112.796875 -11.21875 C 113.984375 -7.207031 116.546875 -4.570312 120.484375 -3.3125 L 120.484375 0 Z M 29.0625 -36.859375 C 29.0625 -29.140625 31.382812 -23.546875 36.03125 -20.078125 C 40.675781 -16.609375 45.675781 -14.875 51.03125 -14.875 C 56.851562 -14.875 62.007812 -16.644531 66.5 -20.1875 C 70.988281 -23.738281 74.769531 -28.304688 77.84375 -33.890625 C 80.914062 -39.484375 83.273438 -45.351562 84.921875 -51.5 C 86.578125 -57.644531 87.40625 -63.394531 87.40625 -68.75 L 87.40625 -74.890625 L 62.125 -67.5625 C 59.289062 -66.769531 56.023438 -65.625 52.328125 -64.125 C 48.628906 -62.632812 45.003906 -60.707031 41.453125 -58.34375 C 37.910156 -55.988281 34.957031 -53.035156 32.59375 -49.484375 C 30.238281 -45.941406 29.0625 -41.734375 29.0625 -36.859375 Z M 29.0625 -36.859375 "/></g></g></g></g></g></svg>